<mxfile host="app.diagrams.net" agent="Mozilla/5.0 (Windows NT 10.0; Win64; x64; rv:134.0) Gecko/20100101 Firefox/134.0" version="25.0.3">
  <diagram name="Page-1" id="L3M2RedUAsprgC-HmwrY">
    <mxGraphModel dx="1900" dy="1637" grid="1" gridSize="10" guides="1" tooltips="1" connect="1" arrows="1" fold="1" page="1" pageScale="1" pageWidth="850" pageHeight="1100" math="0" shadow="0">
      <root>
        <mxCell id="0" />
        <mxCell id="1" parent="0" />
        <mxCell id="lNUg0GOB951emykACgn2-293" style="edgeStyle=orthogonalEdgeStyle;rounded=0;orthogonalLoop=1;jettySize=auto;html=1;exitX=0;exitY=0.5;exitDx=0;exitDy=0;entryX=1;entryY=0.5;entryDx=0;entryDy=0;endArrow=none;startFill=0;" parent="1" source="lNUg0GOB951emykACgn2-307" target="lNUg0GOB951emykACgn2-291" edge="1">
          <mxGeometry relative="1" as="geometry" />
        </mxCell>
        <mxCell id="lNUg0GOB951emykACgn2-295" style="edgeStyle=orthogonalEdgeStyle;rounded=0;orthogonalLoop=1;jettySize=auto;html=1;exitX=1;exitY=0.5;exitDx=0;exitDy=0;endArrow=none;startFill=0;entryX=0;entryY=0.5;entryDx=0;entryDy=0;" parent="1" source="lNUg0GOB951emykACgn2-307" target="lNUg0GOB951emykACgn2-294" edge="1">
          <mxGeometry relative="1" as="geometry">
            <mxPoint x="390.0000000000002" y="460" as="sourcePoint" />
          </mxGeometry>
        </mxCell>
        <mxCell id="lNUg0GOB951emykACgn2-393" style="rounded=0;orthogonalLoop=1;jettySize=auto;html=1;exitX=0.5;exitY=1;exitDx=0;exitDy=0;endArrow=none;startFill=0;" parent="1" source="lNUg0GOB951emykACgn2-286" target="lNUg0GOB951emykACgn2-307" edge="1">
          <mxGeometry relative="1" as="geometry" />
        </mxCell>
        <mxCell id="UIaZnT7w7h5Eu3xHV6hs-57" style="rounded=0;orthogonalLoop=1;jettySize=auto;html=1;exitX=0.5;exitY=0;exitDx=0;exitDy=0;entryX=0.5;entryY=1;entryDx=0;entryDy=0;endArrow=none;endFill=0;" edge="1" parent="1" source="lNUg0GOB951emykACgn2-286" target="UIaZnT7w7h5Eu3xHV6hs-39">
          <mxGeometry relative="1" as="geometry" />
        </mxCell>
        <mxCell id="lNUg0GOB951emykACgn2-286" value="Contains" style="shape=rhombus;perimeter=rhombusPerimeter;whiteSpace=wrap;html=1;align=center;" parent="1" vertex="1">
          <mxGeometry x="170" y="270" width="120" height="60" as="geometry" />
        </mxCell>
        <mxCell id="lNUg0GOB951emykACgn2-341" style="rounded=0;orthogonalLoop=1;jettySize=auto;html=1;exitX=0.5;exitY=1;exitDx=0;exitDy=0;entryX=0.5;entryY=0;entryDx=0;entryDy=0;endArrow=none;startFill=0;" parent="1" source="lNUg0GOB951emykACgn2-291" target="lNUg0GOB951emykACgn2-340" edge="1">
          <mxGeometry relative="1" as="geometry" />
        </mxCell>
        <mxCell id="lNUg0GOB951emykACgn2-291" value="Audio Player" style="whiteSpace=wrap;html=1;align=center;" parent="1" vertex="1">
          <mxGeometry x="-60" y="440" width="100" height="40" as="geometry" />
        </mxCell>
        <mxCell id="lNUg0GOB951emykACgn2-321" style="rounded=0;orthogonalLoop=1;jettySize=auto;html=1;exitX=1;exitY=0.5;exitDx=0;exitDy=0;entryX=0;entryY=0.5;entryDx=0;entryDy=0;endArrow=none;startFill=0;" parent="1" source="lNUg0GOB951emykACgn2-294" target="lNUg0GOB951emykACgn2-320" edge="1">
          <mxGeometry relative="1" as="geometry" />
        </mxCell>
        <mxCell id="lNUg0GOB951emykACgn2-359" style="edgeStyle=orthogonalEdgeStyle;rounded=0;orthogonalLoop=1;jettySize=auto;html=1;exitX=0.5;exitY=1;exitDx=0;exitDy=0;entryX=0.5;entryY=0;entryDx=0;entryDy=0;" parent="1" source="lNUg0GOB951emykACgn2-294" target="lNUg0GOB951emykACgn2-358" edge="1">
          <mxGeometry relative="1" as="geometry" />
        </mxCell>
        <mxCell id="lNUg0GOB951emykACgn2-362" style="rounded=0;orthogonalLoop=1;jettySize=auto;html=1;exitX=1;exitY=0.5;exitDx=0;exitDy=0;endArrow=none;startFill=0;entryX=0;entryY=0.5;entryDx=0;entryDy=0;" parent="1" source="lNUg0GOB951emykACgn2-294" target="lNUg0GOB951emykACgn2-364" edge="1">
          <mxGeometry relative="1" as="geometry">
            <mxPoint x="540" y="459.66666666666674" as="targetPoint" />
          </mxGeometry>
        </mxCell>
        <mxCell id="lNUg0GOB951emykACgn2-363" style="rounded=0;orthogonalLoop=1;jettySize=auto;html=1;exitX=1;exitY=0.5;exitDx=0;exitDy=0;endArrow=none;startFill=0;entryX=0;entryY=0.5;entryDx=0;entryDy=0;" parent="1" source="lNUg0GOB951emykACgn2-294" target="lNUg0GOB951emykACgn2-365" edge="1">
          <mxGeometry relative="1" as="geometry">
            <mxPoint x="540" y="420" as="targetPoint" />
          </mxGeometry>
        </mxCell>
        <mxCell id="lNUg0GOB951emykACgn2-294" value="Texture Map" style="whiteSpace=wrap;html=1;align=center;" parent="1" vertex="1">
          <mxGeometry x="420" y="440" width="100" height="40" as="geometry" />
        </mxCell>
        <mxCell id="lNUg0GOB951emykACgn2-297" value="Length" style="ellipse;whiteSpace=wrap;html=1;align=center;" parent="1" vertex="1">
          <mxGeometry x="-190" y="400" width="100" height="40" as="geometry" />
        </mxCell>
        <mxCell id="lNUg0GOB951emykACgn2-298" value="File Paths" style="ellipse;whiteSpace=wrap;html=1;align=center;" parent="1" vertex="1">
          <mxGeometry x="-190" y="480" width="100" height="40" as="geometry" />
        </mxCell>
        <mxCell id="lNUg0GOB951emykACgn2-303" value="" style="endArrow=none;html=1;rounded=0;exitX=1;exitY=0.5;exitDx=0;exitDy=0;entryX=0;entryY=0.5;entryDx=0;entryDy=0;" parent="1" source="lNUg0GOB951emykACgn2-297" target="lNUg0GOB951emykACgn2-291" edge="1">
          <mxGeometry relative="1" as="geometry">
            <mxPoint x="-90" y="380" as="sourcePoint" />
            <mxPoint x="-60" y="462" as="targetPoint" />
          </mxGeometry>
        </mxCell>
        <mxCell id="lNUg0GOB951emykACgn2-304" value="" style="endArrow=none;html=1;rounded=0;exitX=1;exitY=0.5;exitDx=0;exitDy=0;entryX=0;entryY=0.5;entryDx=0;entryDy=0;" parent="1" source="lNUg0GOB951emykACgn2-298" target="lNUg0GOB951emykACgn2-291" edge="1">
          <mxGeometry relative="1" as="geometry">
            <mxPoint x="-70" y="318" as="sourcePoint" />
            <mxPoint x="-40" y="400" as="targetPoint" />
          </mxGeometry>
        </mxCell>
        <mxCell id="UIaZnT7w7h5Eu3xHV6hs-95" style="rounded=0;orthogonalLoop=1;jettySize=auto;html=1;exitX=0.5;exitY=1;exitDx=0;exitDy=0;entryX=0.5;entryY=0;entryDx=0;entryDy=0;endArrow=none;endFill=0;" edge="1" parent="1" source="lNUg0GOB951emykACgn2-307" target="UIaZnT7w7h5Eu3xHV6hs-93">
          <mxGeometry relative="1" as="geometry" />
        </mxCell>
        <mxCell id="lNUg0GOB951emykACgn2-307" value="Components" style="whiteSpace=wrap;html=1;align=center;" parent="1" vertex="1">
          <mxGeometry x="180" y="440" width="100" height="40" as="geometry" />
        </mxCell>
        <mxCell id="lNUg0GOB951emykACgn2-312" value="1" style="text;html=1;align=center;verticalAlign=middle;resizable=0;points=[];autosize=1;strokeColor=none;fillColor=none;" parent="1" vertex="1">
          <mxGeometry x="50" y="440" width="30" height="30" as="geometry" />
        </mxCell>
        <mxCell id="lNUg0GOB951emykACgn2-313" value="1" style="text;html=1;align=center;verticalAlign=middle;resizable=0;points=[];autosize=1;strokeColor=none;fillColor=none;" parent="1" vertex="1">
          <mxGeometry x="380" y="440" width="30" height="30" as="geometry" />
        </mxCell>
        <mxCell id="lNUg0GOB951emykACgn2-320" value="File Paths" style="ellipse;whiteSpace=wrap;html=1;align=center;" parent="1" vertex="1">
          <mxGeometry x="540" y="520" width="100" height="40" as="geometry" />
        </mxCell>
        <mxCell id="lNUg0GOB951emykACgn2-343" style="rounded=0;orthogonalLoop=1;jettySize=auto;html=1;exitX=0.5;exitY=1;exitDx=0;exitDy=0;entryX=0.5;entryY=0;entryDx=0;entryDy=0;endArrow=none;startFill=0;" parent="1" source="lNUg0GOB951emykACgn2-340" target="lNUg0GOB951emykACgn2-342" edge="1">
          <mxGeometry relative="1" as="geometry" />
        </mxCell>
        <mxCell id="lNUg0GOB951emykACgn2-340" value="Has" style="shape=rhombus;perimeter=rhombusPerimeter;whiteSpace=wrap;html=1;align=center;" parent="1" vertex="1">
          <mxGeometry x="-70" y="520" width="120" height="60" as="geometry" />
        </mxCell>
        <mxCell id="lNUg0GOB951emykACgn2-345" style="rounded=0;orthogonalLoop=1;jettySize=auto;html=1;exitX=0.5;exitY=1;exitDx=0;exitDy=0;entryX=0.5;entryY=0;entryDx=0;entryDy=0;endArrow=none;startFill=0;" parent="1" source="lNUg0GOB951emykACgn2-342" target="lNUg0GOB951emykACgn2-344" edge="1">
          <mxGeometry relative="1" as="geometry" />
        </mxCell>
        <mxCell id="lNUg0GOB951emykACgn2-342" value="Audio Data" style="whiteSpace=wrap;html=1;align=center;" parent="1" vertex="1">
          <mxGeometry x="-60" y="610" width="100" height="40" as="geometry" />
        </mxCell>
        <mxCell id="lNUg0GOB951emykACgn2-347" style="rounded=0;orthogonalLoop=1;jettySize=auto;html=1;exitX=0.5;exitY=1;exitDx=0;exitDy=0;entryX=0.5;entryY=0;entryDx=0;entryDy=0;endArrow=none;startFill=0;" parent="1" source="lNUg0GOB951emykACgn2-344" target="lNUg0GOB951emykACgn2-346" edge="1">
          <mxGeometry relative="1" as="geometry" />
        </mxCell>
        <mxCell id="lNUg0GOB951emykACgn2-344" value="From" style="shape=rhombus;perimeter=rhombusPerimeter;whiteSpace=wrap;html=1;align=center;" parent="1" vertex="1">
          <mxGeometry x="-70" y="680" width="120" height="60" as="geometry" />
        </mxCell>
        <mxCell id="lNUg0GOB951emykACgn2-346" value="Audio File" style="ellipse;whiteSpace=wrap;html=1;align=center;" parent="1" vertex="1">
          <mxGeometry x="-60" y="760" width="100" height="40" as="geometry" />
        </mxCell>
        <mxCell id="lNUg0GOB951emykACgn2-348" value="N" style="text;html=1;align=center;verticalAlign=middle;resizable=0;points=[];autosize=1;strokeColor=none;fillColor=none;" parent="1" vertex="1">
          <mxGeometry x="-10" y="730" width="30" height="30" as="geometry" />
        </mxCell>
        <mxCell id="lNUg0GOB951emykACgn2-349" value="1" style="text;html=1;align=center;verticalAlign=middle;resizable=0;points=[];autosize=1;strokeColor=none;fillColor=none;" parent="1" vertex="1">
          <mxGeometry x="-10" y="580" width="30" height="30" as="geometry" />
        </mxCell>
        <mxCell id="lNUg0GOB951emykACgn2-350" style="rounded=0;orthogonalLoop=1;jettySize=auto;html=1;exitX=0.5;exitY=1;exitDx=0;exitDy=0;entryX=0.5;entryY=0;entryDx=0;entryDy=0;endArrow=none;startFill=0;" parent="1" source="lNUg0GOB951emykACgn2-358" target="lNUg0GOB951emykACgn2-352" edge="1">
          <mxGeometry relative="1" as="geometry">
            <mxPoint x="470" y="580" as="sourcePoint" />
          </mxGeometry>
        </mxCell>
        <mxCell id="lNUg0GOB951emykACgn2-351" style="rounded=0;orthogonalLoop=1;jettySize=auto;html=1;exitX=0.5;exitY=1;exitDx=0;exitDy=0;entryX=0.5;entryY=0;entryDx=0;entryDy=0;endArrow=none;startFill=0;" parent="1" source="lNUg0GOB951emykACgn2-352" target="lNUg0GOB951emykACgn2-354" edge="1">
          <mxGeometry relative="1" as="geometry" />
        </mxCell>
        <mxCell id="lNUg0GOB951emykACgn2-352" value="Image Data" style="whiteSpace=wrap;html=1;align=center;" parent="1" vertex="1">
          <mxGeometry x="420" y="610" width="100" height="40" as="geometry" />
        </mxCell>
        <mxCell id="lNUg0GOB951emykACgn2-353" style="rounded=0;orthogonalLoop=1;jettySize=auto;html=1;exitX=0.5;exitY=1;exitDx=0;exitDy=0;entryX=0.5;entryY=0;entryDx=0;entryDy=0;endArrow=none;startFill=0;" parent="1" source="lNUg0GOB951emykACgn2-354" target="lNUg0GOB951emykACgn2-355" edge="1">
          <mxGeometry relative="1" as="geometry" />
        </mxCell>
        <mxCell id="lNUg0GOB951emykACgn2-354" value="From" style="shape=rhombus;perimeter=rhombusPerimeter;whiteSpace=wrap;html=1;align=center;" parent="1" vertex="1">
          <mxGeometry x="410" y="680" width="120" height="60" as="geometry" />
        </mxCell>
        <mxCell id="lNUg0GOB951emykACgn2-355" value="Image File" style="ellipse;whiteSpace=wrap;html=1;align=center;" parent="1" vertex="1">
          <mxGeometry x="420" y="760" width="100" height="40" as="geometry" />
        </mxCell>
        <mxCell id="lNUg0GOB951emykACgn2-356" value="N" style="text;html=1;align=center;verticalAlign=middle;resizable=0;points=[];autosize=1;strokeColor=none;fillColor=none;" parent="1" vertex="1">
          <mxGeometry x="470" y="730" width="30" height="30" as="geometry" />
        </mxCell>
        <mxCell id="lNUg0GOB951emykACgn2-357" value="1" style="text;html=1;align=center;verticalAlign=middle;resizable=0;points=[];autosize=1;strokeColor=none;fillColor=none;" parent="1" vertex="1">
          <mxGeometry x="470" y="580" width="30" height="30" as="geometry" />
        </mxCell>
        <mxCell id="lNUg0GOB951emykACgn2-358" value="Has" style="shape=rhombus;perimeter=rhombusPerimeter;whiteSpace=wrap;html=1;align=center;" parent="1" vertex="1">
          <mxGeometry x="410" y="520" width="120" height="60" as="geometry" />
        </mxCell>
        <mxCell id="lNUg0GOB951emykACgn2-361" value="N" style="text;html=1;align=center;verticalAlign=middle;resizable=0;points=[];autosize=1;strokeColor=none;fillColor=none;" parent="1" vertex="1">
          <mxGeometry x="235" y="410" width="30" height="30" as="geometry" />
        </mxCell>
        <mxCell id="lNUg0GOB951emykACgn2-364" value="Width" style="ellipse;whiteSpace=wrap;html=1;align=center;" parent="1" vertex="1">
          <mxGeometry x="540" y="440" width="100" height="40" as="geometry" />
        </mxCell>
        <mxCell id="lNUg0GOB951emykACgn2-365" value="Height" style="ellipse;whiteSpace=wrap;html=1;align=center;" parent="1" vertex="1">
          <mxGeometry x="540" y="360" width="100" height="40" as="geometry" />
        </mxCell>
        <mxCell id="lNUg0GOB951emykACgn2-369" style="rounded=0;orthogonalLoop=1;jettySize=auto;html=1;exitX=0.5;exitY=1;exitDx=0;exitDy=0;entryX=0.5;entryY=0;entryDx=0;entryDy=0;endArrow=none;startFill=0;" parent="1" source="lNUg0GOB951emykACgn2-366" target="lNUg0GOB951emykACgn2-367" edge="1">
          <mxGeometry relative="1" as="geometry" />
        </mxCell>
        <mxCell id="lNUg0GOB951emykACgn2-366" value="Unique Components" style="whiteSpace=wrap;html=1;align=center;" parent="1" vertex="1">
          <mxGeometry x="180" y="670" width="100" height="40" as="geometry" />
        </mxCell>
        <mxCell id="lNUg0GOB951emykACgn2-378" style="rounded=0;orthogonalLoop=1;jettySize=auto;html=1;exitX=0.5;exitY=1;exitDx=0;exitDy=0;entryX=0.5;entryY=0;entryDx=0;entryDy=0;endArrow=none;startFill=0;" parent="1" source="lNUg0GOB951emykACgn2-367" target="lNUg0GOB951emykACgn2-372" edge="1">
          <mxGeometry relative="1" as="geometry" />
        </mxCell>
        <mxCell id="lNUg0GOB951emykACgn2-367" value="Has" style="shape=rhombus;perimeter=rhombusPerimeter;whiteSpace=wrap;html=1;align=center;" parent="1" vertex="1">
          <mxGeometry x="170" y="740" width="120" height="60" as="geometry" />
        </mxCell>
        <mxCell id="lNUg0GOB951emykACgn2-386" style="rounded=0;orthogonalLoop=1;jettySize=auto;html=1;exitX=0.5;exitY=1;exitDx=0;exitDy=0;endArrow=none;startFill=0;" parent="1" source="lNUg0GOB951emykACgn2-372" target="lNUg0GOB951emykACgn2-387" edge="1">
          <mxGeometry relative="1" as="geometry">
            <mxPoint x="230" y="910" as="targetPoint" />
          </mxGeometry>
        </mxCell>
        <mxCell id="lNUg0GOB951emykACgn2-372" value="Attributes" style="ellipse;whiteSpace=wrap;html=1;align=center;" parent="1" vertex="1">
          <mxGeometry x="180" y="830" width="100" height="40" as="geometry" />
        </mxCell>
        <mxCell id="lNUg0GOB951emykACgn2-379" value="N" style="text;html=1;align=center;verticalAlign=middle;resizable=0;points=[];autosize=1;strokeColor=none;fillColor=none;" parent="1" vertex="1">
          <mxGeometry x="230" y="800" width="30" height="30" as="geometry" />
        </mxCell>
        <mxCell id="lNUg0GOB951emykACgn2-382" value="1" style="text;html=1;align=center;verticalAlign=middle;resizable=0;points=[];autosize=1;strokeColor=none;fillColor=none;" parent="1" vertex="1">
          <mxGeometry x="230" y="710" width="30" height="30" as="geometry" />
        </mxCell>
        <mxCell id="lNUg0GOB951emykACgn2-390" style="rounded=0;orthogonalLoop=1;jettySize=auto;html=1;exitX=0.5;exitY=1;exitDx=0;exitDy=0;entryX=0.5;entryY=0;entryDx=0;entryDy=0;endArrow=none;startFill=0;" parent="1" source="lNUg0GOB951emykACgn2-387" target="lNUg0GOB951emykACgn2-389" edge="1">
          <mxGeometry relative="1" as="geometry" />
        </mxCell>
        <mxCell id="lNUg0GOB951emykACgn2-387" value="May have" style="shape=rhombus;perimeter=rhombusPerimeter;whiteSpace=wrap;html=1;align=center;" parent="1" vertex="1">
          <mxGeometry x="170" y="900" width="120" height="60" as="geometry" />
        </mxCell>
        <mxCell id="lNUg0GOB951emykACgn2-389" value="Relationships" style="ellipse;whiteSpace=wrap;html=1;align=center;" parent="1" vertex="1">
          <mxGeometry x="180" y="980" width="100" height="40" as="geometry" />
        </mxCell>
        <mxCell id="lNUg0GOB951emykACgn2-391" value="N" style="text;html=1;align=center;verticalAlign=middle;resizable=0;points=[];autosize=1;strokeColor=none;fillColor=none;" parent="1" vertex="1">
          <mxGeometry x="230" y="950" width="30" height="30" as="geometry" />
        </mxCell>
        <mxCell id="UIaZnT7w7h5Eu3xHV6hs-24" style="rounded=0;orthogonalLoop=1;jettySize=auto;html=1;exitX=0.5;exitY=1;exitDx=0;exitDy=0;endArrow=none;endFill=0;" edge="1" parent="1" source="UIaZnT7w7h5Eu3xHV6hs-14" target="UIaZnT7w7h5Eu3xHV6hs-23">
          <mxGeometry relative="1" as="geometry" />
        </mxCell>
        <mxCell id="UIaZnT7w7h5Eu3xHV6hs-14" value="Scene" style="whiteSpace=wrap;html=1;align=center;" vertex="1" parent="1">
          <mxGeometry x="180" y="-40" width="100" height="40" as="geometry" />
        </mxCell>
        <mxCell id="UIaZnT7w7h5Eu3xHV6hs-43" style="rounded=0;orthogonalLoop=1;jettySize=auto;html=1;exitX=0.5;exitY=1;exitDx=0;exitDy=0;entryX=0.5;entryY=0;entryDx=0;entryDy=0;endArrow=none;endFill=0;" edge="1" parent="1" source="UIaZnT7w7h5Eu3xHV6hs-23" target="UIaZnT7w7h5Eu3xHV6hs-39">
          <mxGeometry relative="1" as="geometry" />
        </mxCell>
        <mxCell id="UIaZnT7w7h5Eu3xHV6hs-23" value="Has" style="shape=rhombus;perimeter=rhombusPerimeter;whiteSpace=wrap;html=1;align=center;" vertex="1" parent="1">
          <mxGeometry x="170" y="60" width="120" height="60" as="geometry" />
        </mxCell>
        <mxCell id="UIaZnT7w7h5Eu3xHV6hs-26" style="rounded=0;orthogonalLoop=1;jettySize=auto;html=1;exitX=0.5;exitY=1;exitDx=0;exitDy=0;entryX=0.5;entryY=0;entryDx=0;entryDy=0;endArrow=none;endFill=0;" edge="1" parent="1" source="UIaZnT7w7h5Eu3xHV6hs-25" target="UIaZnT7w7h5Eu3xHV6hs-14">
          <mxGeometry relative="1" as="geometry" />
        </mxCell>
        <mxCell id="UIaZnT7w7h5Eu3xHV6hs-25" value="Scene ID" style="ellipse;whiteSpace=wrap;html=1;align=center;fontStyle=4;" vertex="1" parent="1">
          <mxGeometry x="-30" y="-120" width="100" height="40" as="geometry" />
        </mxCell>
        <mxCell id="UIaZnT7w7h5Eu3xHV6hs-29" style="rounded=0;orthogonalLoop=1;jettySize=auto;html=1;exitX=0.5;exitY=1;exitDx=0;exitDy=0;entryX=0.5;entryY=0;entryDx=0;entryDy=0;endArrow=none;endFill=0;" edge="1" parent="1" source="UIaZnT7w7h5Eu3xHV6hs-28" target="UIaZnT7w7h5Eu3xHV6hs-14">
          <mxGeometry relative="1" as="geometry" />
        </mxCell>
        <mxCell id="UIaZnT7w7h5Eu3xHV6hs-28" value="Name" style="ellipse;whiteSpace=wrap;html=1;align=center;" vertex="1" parent="1">
          <mxGeometry x="290" y="-160" width="100" height="40" as="geometry" />
        </mxCell>
        <mxCell id="UIaZnT7w7h5Eu3xHV6hs-33" style="rounded=0;orthogonalLoop=1;jettySize=auto;html=1;exitX=0.5;exitY=1;exitDx=0;exitDy=0;entryX=0.5;entryY=0;entryDx=0;entryDy=0;endArrow=none;endFill=0;" edge="1" parent="1" source="UIaZnT7w7h5Eu3xHV6hs-32" target="UIaZnT7w7h5Eu3xHV6hs-14">
          <mxGeometry relative="1" as="geometry" />
        </mxCell>
        <mxCell id="UIaZnT7w7h5Eu3xHV6hs-32" value="Date Created" style="ellipse;whiteSpace=wrap;html=1;align=center;" vertex="1" parent="1">
          <mxGeometry x="70" y="-160" width="100" height="40" as="geometry" />
        </mxCell>
        <mxCell id="UIaZnT7w7h5Eu3xHV6hs-38" style="rounded=0;orthogonalLoop=1;jettySize=auto;html=1;exitX=0.5;exitY=1;exitDx=0;exitDy=0;entryX=0.5;entryY=0;entryDx=0;entryDy=0;endArrow=none;endFill=0;" edge="1" parent="1" source="UIaZnT7w7h5Eu3xHV6hs-37" target="UIaZnT7w7h5Eu3xHV6hs-14">
          <mxGeometry relative="1" as="geometry">
            <mxPoint x="445" y="-80" as="sourcePoint" />
          </mxGeometry>
        </mxCell>
        <mxCell id="UIaZnT7w7h5Eu3xHV6hs-37" value="config" style="ellipse;whiteSpace=wrap;html=1;align=center;" vertex="1" parent="1">
          <mxGeometry x="400" y="-120" width="100" height="40" as="geometry" />
        </mxCell>
        <mxCell id="UIaZnT7w7h5Eu3xHV6hs-51" style="rounded=0;orthogonalLoop=1;jettySize=auto;html=1;exitX=0;exitY=0.5;exitDx=0;exitDy=0;entryX=1;entryY=0.5;entryDx=0;entryDy=0;endArrow=none;endFill=0;" edge="1" parent="1" source="UIaZnT7w7h5Eu3xHV6hs-39" target="UIaZnT7w7h5Eu3xHV6hs-49">
          <mxGeometry relative="1" as="geometry" />
        </mxCell>
        <mxCell id="UIaZnT7w7h5Eu3xHV6hs-52" style="rounded=0;orthogonalLoop=1;jettySize=auto;html=1;exitX=1;exitY=0.5;exitDx=0;exitDy=0;entryX=0;entryY=0.5;entryDx=0;entryDy=0;endArrow=none;endFill=0;" edge="1" parent="1" source="UIaZnT7w7h5Eu3xHV6hs-39" target="UIaZnT7w7h5Eu3xHV6hs-50">
          <mxGeometry relative="1" as="geometry" />
        </mxCell>
        <mxCell id="UIaZnT7w7h5Eu3xHV6hs-39" value="Entity" style="whiteSpace=wrap;html=1;align=center;" vertex="1" parent="1">
          <mxGeometry x="180" y="165" width="100" height="40" as="geometry" />
        </mxCell>
        <mxCell id="UIaZnT7w7h5Eu3xHV6hs-45" value="1" style="text;html=1;align=center;verticalAlign=middle;resizable=0;points=[];autosize=1;strokeColor=none;fillColor=none;" vertex="1" parent="1">
          <mxGeometry x="230" y="8" width="30" height="30" as="geometry" />
        </mxCell>
        <mxCell id="UIaZnT7w7h5Eu3xHV6hs-46" value="N" style="text;html=1;align=center;verticalAlign=middle;resizable=0;points=[];autosize=1;strokeColor=none;fillColor=none;" vertex="1" parent="1">
          <mxGeometry x="230" y="118" width="30" height="30" as="geometry" />
        </mxCell>
        <mxCell id="UIaZnT7w7h5Eu3xHV6hs-49" value="Unique ID" style="ellipse;whiteSpace=wrap;html=1;align=center;fontStyle=4;" vertex="1" parent="1">
          <mxGeometry x="-20" y="165" width="100" height="40" as="geometry" />
        </mxCell>
        <mxCell id="UIaZnT7w7h5Eu3xHV6hs-50" value="Time Created" style="ellipse;whiteSpace=wrap;html=1;align=center;" vertex="1" parent="1">
          <mxGeometry x="400" y="165" width="100" height="40" as="geometry" />
        </mxCell>
        <mxCell id="UIaZnT7w7h5Eu3xHV6hs-62" style="rounded=0;orthogonalLoop=1;jettySize=auto;html=1;exitX=0.5;exitY=1;exitDx=0;exitDy=0;entryX=0.5;entryY=0;entryDx=0;entryDy=0;endArrow=none;endFill=0;" edge="1" parent="1" source="UIaZnT7w7h5Eu3xHV6hs-58" target="UIaZnT7w7h5Eu3xHV6hs-61">
          <mxGeometry relative="1" as="geometry" />
        </mxCell>
        <mxCell id="UIaZnT7w7h5Eu3xHV6hs-65" style="rounded=0;orthogonalLoop=1;jettySize=auto;html=1;exitX=0.5;exitY=1;exitDx=0;exitDy=0;entryX=0.5;entryY=0;entryDx=0;entryDy=0;endArrow=none;endFill=0;" edge="1" parent="1" source="UIaZnT7w7h5Eu3xHV6hs-58" target="UIaZnT7w7h5Eu3xHV6hs-64">
          <mxGeometry relative="1" as="geometry" />
        </mxCell>
        <mxCell id="UIaZnT7w7h5Eu3xHV6hs-58" value="Editor" style="rounded=0;whiteSpace=wrap;html=1;" vertex="1" parent="1">
          <mxGeometry x="-60" y="-500" width="120" height="60" as="geometry" />
        </mxCell>
        <mxCell id="UIaZnT7w7h5Eu3xHV6hs-63" style="rounded=0;orthogonalLoop=1;jettySize=auto;html=1;exitX=0.5;exitY=1;exitDx=0;exitDy=0;entryX=0.5;entryY=0;entryDx=0;entryDy=0;endArrow=none;endFill=0;" edge="1" parent="1" source="UIaZnT7w7h5Eu3xHV6hs-61" target="UIaZnT7w7h5Eu3xHV6hs-14">
          <mxGeometry relative="1" as="geometry" />
        </mxCell>
        <mxCell id="UIaZnT7w7h5Eu3xHV6hs-61" value="Has" style="shape=rhombus;perimeter=rhombusPerimeter;whiteSpace=wrap;html=1;align=center;" vertex="1" parent="1">
          <mxGeometry x="170" y="-220" width="120" height="60" as="geometry" />
        </mxCell>
        <mxCell id="UIaZnT7w7h5Eu3xHV6hs-67" style="rounded=0;orthogonalLoop=1;jettySize=auto;html=1;exitX=0.5;exitY=1;exitDx=0;exitDy=0;entryX=0.5;entryY=0;entryDx=0;entryDy=0;endArrow=none;endFill=0;" edge="1" parent="1" source="UIaZnT7w7h5Eu3xHV6hs-64" target="UIaZnT7w7h5Eu3xHV6hs-66">
          <mxGeometry relative="1" as="geometry" />
        </mxCell>
        <mxCell id="UIaZnT7w7h5Eu3xHV6hs-64" value="Has" style="shape=rhombus;perimeter=rhombusPerimeter;whiteSpace=wrap;html=1;align=center;" vertex="1" parent="1">
          <mxGeometry x="-290" y="-220" width="120" height="60" as="geometry" />
        </mxCell>
        <mxCell id="UIaZnT7w7h5Eu3xHV6hs-75" style="rounded=0;orthogonalLoop=1;jettySize=auto;html=1;exitX=1;exitY=0.5;exitDx=0;exitDy=0;entryX=0;entryY=0.5;entryDx=0;entryDy=0;endArrow=none;endFill=0;" edge="1" parent="1" source="UIaZnT7w7h5Eu3xHV6hs-66" target="UIaZnT7w7h5Eu3xHV6hs-74">
          <mxGeometry relative="1" as="geometry" />
        </mxCell>
        <mxCell id="UIaZnT7w7h5Eu3xHV6hs-81" style="edgeStyle=orthogonalEdgeStyle;rounded=0;orthogonalLoop=1;jettySize=auto;html=1;exitX=0.5;exitY=1;exitDx=0;exitDy=0;entryX=0.5;entryY=0;entryDx=0;entryDy=0;" edge="1" parent="1" source="UIaZnT7w7h5Eu3xHV6hs-66" target="UIaZnT7w7h5Eu3xHV6hs-80">
          <mxGeometry relative="1" as="geometry" />
        </mxCell>
        <mxCell id="UIaZnT7w7h5Eu3xHV6hs-66" value="UI" style="rounded=0;whiteSpace=wrap;html=1;" vertex="1" parent="1">
          <mxGeometry x="-290" y="-50" width="120" height="60" as="geometry" />
        </mxCell>
        <mxCell id="UIaZnT7w7h5Eu3xHV6hs-71" style="rounded=0;orthogonalLoop=1;jettySize=auto;html=1;exitX=0.5;exitY=1;exitDx=0;exitDy=0;entryX=0.5;entryY=0;entryDx=0;entryDy=0;endArrow=none;endFill=0;" edge="1" parent="1" source="UIaZnT7w7h5Eu3xHV6hs-68" target="UIaZnT7w7h5Eu3xHV6hs-66">
          <mxGeometry relative="1" as="geometry" />
        </mxCell>
        <mxCell id="UIaZnT7w7h5Eu3xHV6hs-68" value="Config" style="ellipse;whiteSpace=wrap;html=1;align=center;" vertex="1" parent="1">
          <mxGeometry x="-420" y="-160" width="100" height="40" as="geometry" />
        </mxCell>
        <mxCell id="UIaZnT7w7h5Eu3xHV6hs-73" style="rounded=0;orthogonalLoop=1;jettySize=auto;html=1;exitX=1;exitY=0.5;exitDx=0;exitDy=0;entryX=0;entryY=0.5;entryDx=0;entryDy=0;endArrow=none;endFill=0;" edge="1" parent="1" source="UIaZnT7w7h5Eu3xHV6hs-72" target="UIaZnT7w7h5Eu3xHV6hs-66">
          <mxGeometry relative="1" as="geometry" />
        </mxCell>
        <mxCell id="UIaZnT7w7h5Eu3xHV6hs-72" value="File system" style="ellipse;whiteSpace=wrap;html=1;align=center;" vertex="1" parent="1">
          <mxGeometry x="-460" y="-40" width="100" height="40" as="geometry" />
        </mxCell>
        <mxCell id="UIaZnT7w7h5Eu3xHV6hs-74" value="Console" style="ellipse;whiteSpace=wrap;html=1;align=center;" vertex="1" parent="1">
          <mxGeometry x="-90" y="-40" width="100" height="40" as="geometry" />
        </mxCell>
        <mxCell id="UIaZnT7w7h5Eu3xHV6hs-76" value="Windows" style="rounded=0;whiteSpace=wrap;html=1;" vertex="1" parent="1">
          <mxGeometry x="-290" y="155" width="120" height="60" as="geometry" />
        </mxCell>
        <mxCell id="UIaZnT7w7h5Eu3xHV6hs-78" value="1" style="text;html=1;align=center;verticalAlign=middle;resizable=0;points=[];autosize=1;strokeColor=none;fillColor=none;" vertex="1" parent="1">
          <mxGeometry x="-230" y="-160" width="30" height="30" as="geometry" />
        </mxCell>
        <mxCell id="UIaZnT7w7h5Eu3xHV6hs-79" value="N" style="text;html=1;align=center;verticalAlign=middle;resizable=0;points=[];autosize=1;strokeColor=none;fillColor=none;" vertex="1" parent="1">
          <mxGeometry x="-230" y="110" width="30" height="30" as="geometry" />
        </mxCell>
        <mxCell id="UIaZnT7w7h5Eu3xHV6hs-82" style="edgeStyle=orthogonalEdgeStyle;rounded=0;orthogonalLoop=1;jettySize=auto;html=1;exitX=0.5;exitY=1;exitDx=0;exitDy=0;entryX=0.5;entryY=0;entryDx=0;entryDy=0;" edge="1" parent="1" source="UIaZnT7w7h5Eu3xHV6hs-80" target="UIaZnT7w7h5Eu3xHV6hs-76">
          <mxGeometry relative="1" as="geometry" />
        </mxCell>
        <mxCell id="UIaZnT7w7h5Eu3xHV6hs-80" value="Contains" style="shape=rhombus;perimeter=rhombusPerimeter;whiteSpace=wrap;html=1;align=center;" vertex="1" parent="1">
          <mxGeometry x="-290" y="50" width="120" height="60" as="geometry" />
        </mxCell>
        <mxCell id="UIaZnT7w7h5Eu3xHV6hs-83" value="1" style="text;html=1;align=center;verticalAlign=middle;resizable=0;points=[];autosize=1;strokeColor=none;fillColor=none;" vertex="1" parent="1">
          <mxGeometry x="-234" y="18" width="30" height="30" as="geometry" />
        </mxCell>
        <mxCell id="UIaZnT7w7h5Eu3xHV6hs-84" value="1" style="text;html=1;align=center;verticalAlign=middle;resizable=0;points=[];autosize=1;strokeColor=none;fillColor=none;" vertex="1" parent="1">
          <mxGeometry x="-140" y="-312" width="30" height="30" as="geometry" />
        </mxCell>
        <mxCell id="UIaZnT7w7h5Eu3xHV6hs-85" value="1" style="text;html=1;align=center;verticalAlign=middle;resizable=0;points=[];autosize=1;strokeColor=none;fillColor=none;" vertex="1" parent="1">
          <mxGeometry x="100" y="-320" width="30" height="30" as="geometry" />
        </mxCell>
        <mxCell id="UIaZnT7w7h5Eu3xHV6hs-86" value="1" style="text;html=1;align=center;verticalAlign=middle;resizable=0;points=[];autosize=1;strokeColor=none;fillColor=none;" vertex="1" parent="1">
          <mxGeometry x="230" y="-160" width="30" height="30" as="geometry" />
        </mxCell>
        <mxCell id="UIaZnT7w7h5Eu3xHV6hs-87" value="1" style="text;html=1;align=center;verticalAlign=middle;resizable=0;points=[];autosize=1;strokeColor=none;fillColor=none;" vertex="1" parent="1">
          <mxGeometry x="230" y="205" width="30" height="30" as="geometry" />
        </mxCell>
        <mxCell id="UIaZnT7w7h5Eu3xHV6hs-88" value="N" style="text;html=1;align=center;verticalAlign=middle;resizable=0;points=[];autosize=1;strokeColor=none;fillColor=none;" vertex="1" parent="1">
          <mxGeometry x="230" y="480" width="30" height="30" as="geometry" />
        </mxCell>
        <mxCell id="UIaZnT7w7h5Eu3xHV6hs-90" style="rounded=0;orthogonalLoop=1;jettySize=auto;html=1;exitX=0.5;exitY=1;exitDx=0;exitDy=0;entryX=0.5;entryY=0;entryDx=0;entryDy=0;endArrow=none;endFill=0;" edge="1" parent="1" source="UIaZnT7w7h5Eu3xHV6hs-89" target="UIaZnT7w7h5Eu3xHV6hs-58">
          <mxGeometry relative="1" as="geometry" />
        </mxCell>
        <mxCell id="UIaZnT7w7h5Eu3xHV6hs-89" value="User Input" style="ellipse;whiteSpace=wrap;html=1;align=center;" vertex="1" parent="1">
          <mxGeometry x="-175" y="-600" width="100" height="40" as="geometry" />
        </mxCell>
        <mxCell id="UIaZnT7w7h5Eu3xHV6hs-92" style="rounded=0;orthogonalLoop=1;jettySize=auto;html=1;exitX=0.5;exitY=1;exitDx=0;exitDy=0;entryX=0.5;entryY=0;entryDx=0;entryDy=0;endArrow=none;endFill=0;" edge="1" parent="1" source="UIaZnT7w7h5Eu3xHV6hs-91" target="UIaZnT7w7h5Eu3xHV6hs-58">
          <mxGeometry relative="1" as="geometry" />
        </mxCell>
        <mxCell id="UIaZnT7w7h5Eu3xHV6hs-91" value="Account ID" style="ellipse;whiteSpace=wrap;html=1;align=center;fontStyle=4;" vertex="1" parent="1">
          <mxGeometry x="60" y="-600" width="100" height="40" as="geometry" />
        </mxCell>
        <mxCell id="UIaZnT7w7h5Eu3xHV6hs-94" style="rounded=0;orthogonalLoop=1;jettySize=auto;html=1;exitX=0.5;exitY=1;exitDx=0;exitDy=0;entryX=0.5;entryY=0;entryDx=0;entryDy=0;endArrow=none;endFill=0;" edge="1" parent="1" source="UIaZnT7w7h5Eu3xHV6hs-93" target="lNUg0GOB951emykACgn2-366">
          <mxGeometry relative="1" as="geometry" />
        </mxCell>
        <mxCell id="UIaZnT7w7h5Eu3xHV6hs-93" value="Has" style="shape=rhombus;perimeter=rhombusPerimeter;whiteSpace=wrap;html=1;align=center;" vertex="1" parent="1">
          <mxGeometry x="170" y="550" width="120" height="60" as="geometry" />
        </mxCell>
        <mxCell id="UIaZnT7w7h5Eu3xHV6hs-96" value="N" style="text;html=1;align=center;verticalAlign=middle;resizable=0;points=[];autosize=1;strokeColor=none;fillColor=none;" vertex="1" parent="1">
          <mxGeometry x="230" y="620" width="30" height="30" as="geometry" />
        </mxCell>
        <mxCell id="UIaZnT7w7h5Eu3xHV6hs-97" value="1" style="text;html=1;align=center;verticalAlign=middle;resizable=0;points=[];autosize=1;strokeColor=none;fillColor=none;" vertex="1" parent="1">
          <mxGeometry x="230" y="870" width="30" height="30" as="geometry" />
        </mxCell>
      </root>
    </mxGraphModel>
  </diagram>
</mxfile>
